<svg xmlns="http://www.w3.org/2000/svg" version="1.1" width="8652.532mm" height="8384.532mm" viewBox = " 0 0 30658.603160919996 29708.99608092" >
<!-- Front--> 
<g transform="translate(14516.111935459998, 14516.111935459998) " > 
<polygon style="stroke:#000000; fill:none; stroke-width:0.90000074" points="0, 0 34.5472725, 0 34.5472725, 10.62993 69.094545, 10.62993 69.094545, 0 90.354405, 0 90.354405, 10.62993 111.61426499999999, 10.62993 111.61426499999999, 0 132.874125, 0 132.874125, 10.62993 154.133985, 10.62993 154.133985, 0 175.393845, 0 175.393845, 10.62993 196.653705, 10.62993 196.653705, 0 217.913565, 0 217.913565, 10.62993 239.173425, 10.62993 239.173425, 0 260.433285, 0 260.433285, 10.62993 281.693145, 10.62993 281.693145, 0 302.953005, 0 302.953005, 10.62993 324.21286499999997, 10.62993 324.21286499999997, 0 345.47272499999997, 0 345.47272499999997, 10.62993 366.732585, 10.62993 366.732585, 0 387.992445, 0 387.992445, 10.62993 409.252305, 10.62993 409.252305, 0 430.512165, 0 430.512165, 10.62993 451.772025, 10.62993 451.772025, 0 473.031885, 0 473.031885, 10.62993 507.5791575, 10.62993 507.5791575, 0 542.12643, 0 542.12643, 28.34648 531.4965000000001, 28.34648 531.4965000000001, 56.69296 542.12643, 56.69296 542.12643, 77.95282 531.4965000000001, 77.95282 531.4965000000001, 106.2993 542.12643, 106.2993 542.12643, 134.64578 507.5791575, 134.64578 507.5791575, 124.01585 473.031885, 124.01585 473.031885, 134.64578 451.772025, 134.64578 451.772025, 124.01585 430.512165, 124.01585 430.512165, 134.64578 409.252305, 134.64578 409.252305, 124.01585 387.992445, 124.01585 387.992445, 134.64578 366.732585, 134.64578 366.732585, 124.01585 345.47272499999997, 124.01585 345.47272499999997, 134.64578 324.21286499999997, 134.64578 324.21286499999997, 124.01585 302.953005, 124.01585 302.953005, 134.64578 281.693145, 134.64578 281.693145, 124.01585 260.433285, 124.01585 260.433285, 134.64578 239.173425, 134.64578 239.173425, 124.01585 217.913565, 124.01585 217.913565, 134.64578 196.653705, 134.64578 196.653705, 124.01585 175.393845, 124.01585 175.393845, 134.64578 154.133985, 134.64578 154.133985, 124.01585 132.874125, 124.01585 132.874125, 134.64578 111.61426499999999, 134.64578 111.61426499999999, 124.01585 90.354405, 124.01585 90.354405, 134.64578 69.094545, 134.64578 69.094545, 124.01585 34.5472725, 124.01585 34.5472725, 134.64578 0, 134.64578 0, 106.2993 10.62993, 106.2993 10.62993, 77.95282 0, 77.95282 0, 56.69296 10.62993, 56.69296 10.62993, 28.34648 0, 28.34648 "/> 
</g>
<!-- Back--> 
<g transform="translate(15058.238365459998, 14516.111935459998) " > 
<polygon style="stroke:#000000; fill:none; stroke-width:0.90000074" points="0, 0 34.5472725, 0 34.5472725, 10.62993 69.094545, 10.62993 69.094545, 0 90.354405, 0 90.354405, 10.62993 111.61426499999999, 10.62993 111.61426499999999, 0 132.874125, 0 132.874125, 10.62993 154.133985, 10.62993 154.133985, 0 175.393845, 0 175.393845, 10.62993 196.653705, 10.62993 196.653705, 0 217.913565, 0 217.913565, 10.62993 239.173425, 10.62993 239.173425, 0 260.433285, 0 260.433285, 10.62993 281.693145, 10.62993 281.693145, 0 302.953005, 0 302.953005, 10.62993 324.21286499999997, 10.62993 324.21286499999997, 0 345.47272499999997, 0 345.47272499999997, 10.62993 366.732585, 10.62993 366.732585, 0 387.992445, 0 387.992445, 10.62993 409.252305, 10.62993 409.252305, 0 430.512165, 0 430.512165, 10.62993 451.772025, 10.62993 451.772025, 0 473.031885, 0 473.031885, 10.62993 507.5791575, 10.62993 507.5791575, 0 542.12643, 0 542.12643, 28.34648 531.4965000000001, 28.34648 531.4965000000001, 56.69296 542.12643, 56.69296 542.12643, 77.95282 531.4965000000001, 77.95282 531.4965000000001, 106.2993 542.12643, 106.2993 542.12643, 134.64578 507.5791575, 134.64578 507.5791575, 124.01585 473.031885, 124.01585 473.031885, 134.64578 451.772025, 134.64578 451.772025, 124.01585 430.512165, 124.01585 430.512165, 134.64578 409.252305, 134.64578 409.252305, 124.01585 387.992445, 124.01585 387.992445, 134.64578 366.732585, 134.64578 366.732585, 124.01585 345.47272499999997, 124.01585 345.47272499999997, 134.64578 324.21286499999997, 134.64578 324.21286499999997, 124.01585 302.953005, 124.01585 302.953005, 134.64578 281.693145, 134.64578 281.693145, 124.01585 260.433285, 124.01585 260.433285, 134.64578 239.173425, 134.64578 239.173425, 124.01585 217.913565, 124.01585 217.913565, 134.64578 196.653705, 134.64578 196.653705, 124.01585 175.393845, 124.01585 175.393845, 134.64578 154.133985, 134.64578 154.133985, 124.01585 132.874125, 124.01585 132.874125, 134.64578 111.61426499999999, 134.64578 111.61426499999999, 124.01585 90.354405, 124.01585 90.354405, 134.64578 69.094545, 134.64578 69.094545, 124.01585 34.5472725, 124.01585 34.5472725, 134.64578 0, 134.64578 0, 106.2993 10.62993, 106.2993 10.62993, 77.95282 0, 77.95282 0, 56.69296 10.62993, 56.69296 10.62993, 28.34648 0, 28.34648 "/> 
 <circle cx="490.8547343" cy="67.32289" r="13.818909" style="stroke:#000000;stroke-width:0.90000074;fill:none" /> 
</g>
<!-- Left--> 
<g transform="translate(15600.364795459998, 14516.111935459998) " > 
<polygon style="stroke:#000000; fill:none; stroke-width:0.90000074" points="10.62993, 0 34.5472725, 0 34.5472725, 10.62993 69.094545, 10.62993 69.094545, 0 90.354405, 0 90.354405, 10.62993 111.61426499999999, 10.62993 111.61426499999999, 0 132.874125, 0 132.874125, 10.62993 154.133985, 10.62993 154.133985, 0 175.393845, 0 175.393845, 10.62993 196.653705, 10.62993 196.653705, 0 217.913565, 0 217.913565, 10.62993 239.173425, 10.62993 239.173425, 0 260.433285, 0 260.433285, 10.62993 281.693145, 10.62993 281.693145, 0 302.953005, 0 302.953005, 10.62993 324.21286499999997, 10.62993 324.21286499999997, 0 345.47272499999997, 0 345.47272499999997, 10.62993 366.732585, 10.62993 366.732585, 0 387.992445, 0 387.992445, 10.62993 409.252305, 10.62993 409.252305, 0 430.512165, 0 430.512165, 10.62993 451.772025, 10.62993 451.772025, 0 473.031885, 0 473.031885, 10.62993 507.5791575, 10.62993 507.5791575, 0 531.4965000000001, 0 531.4965000000001, 28.34648 542.12643, 28.34648 542.12643, 56.69296 531.4965000000001, 56.69296 531.4965000000001, 77.95282 542.12643, 77.95282 542.12643, 106.2993 531.4965000000001, 106.2993 531.4965000000001, 134.64578 507.5791575, 134.64578 507.5791575, 124.01585 473.031885, 124.01585 473.031885, 134.64578 451.772025, 134.64578 451.772025, 124.01585 430.512165, 124.01585 430.512165, 134.64578 409.252305, 134.64578 409.252305, 124.01585 387.992445, 124.01585 387.992445, 134.64578 366.732585, 134.64578 366.732585, 124.01585 345.47272499999997, 124.01585 345.47272499999997, 134.64578 324.21286499999997, 134.64578 324.21286499999997, 124.01585 302.953005, 124.01585 302.953005, 134.64578 281.693145, 134.64578 281.693145, 124.01585 260.433285, 124.01585 260.433285, 134.64578 239.173425, 134.64578 239.173425, 124.01585 217.913565, 124.01585 217.913565, 134.64578 196.653705, 134.64578 196.653705, 124.01585 175.393845, 124.01585 175.393845, 134.64578 154.133985, 134.64578 154.133985, 124.01585 132.874125, 124.01585 132.874125, 134.64578 111.61426499999999, 134.64578 111.61426499999999, 124.01585 90.354405, 124.01585 90.354405, 134.64578 69.094545, 134.64578 69.094545, 124.01585 34.5472725, 124.01585 34.5472725, 134.64578 10.62993, 134.64578 10.62993, 106.2993 0, 106.2993 0, 77.95282 10.62993, 77.95282 10.62993, 56.69296 0, 56.69296 0, 28.34648 10.62993, 28.34648 "/> 
</g>
<!-- Right--> 
<g transform="translate(15600.364795459998, 14650.757715459999) " > 
<polygon style="stroke:#000000; fill:none; stroke-width:0.90000074" points="10.62993, 0 34.5472725, 0 34.5472725, 10.62993 69.094545, 10.62993 69.094545, 0 90.354405, 0 90.354405, 10.62993 111.61426499999999, 10.62993 111.61426499999999, 0 132.874125, 0 132.874125, 10.62993 154.133985, 10.62993 154.133985, 0 175.393845, 0 175.393845, 10.62993 196.653705, 10.62993 196.653705, 0 217.913565, 0 217.913565, 10.62993 239.173425, 10.62993 239.173425, 0 260.433285, 0 260.433285, 10.62993 281.693145, 10.62993 281.693145, 0 302.953005, 0 302.953005, 10.62993 324.21286499999997, 10.62993 324.21286499999997, 0 345.47272499999997, 0 345.47272499999997, 10.62993 366.732585, 10.62993 366.732585, 0 387.992445, 0 387.992445, 10.62993 409.252305, 10.62993 409.252305, 0 430.512165, 0 430.512165, 10.62993 451.772025, 10.62993 451.772025, 0 473.031885, 0 473.031885, 10.62993 507.5791575, 10.62993 507.5791575, 0 531.4965000000001, 0 531.4965000000001, 28.34648 542.12643, 28.34648 542.12643, 56.69296 531.4965000000001, 56.69296 531.4965000000001, 77.95282 542.12643, 77.95282 542.12643, 106.2993 531.4965000000001, 106.2993 531.4965000000001, 134.64578 507.5791575, 134.64578 507.5791575, 124.01585 473.031885, 124.01585 473.031885, 134.64578 451.772025, 134.64578 451.772025, 124.01585 430.512165, 124.01585 430.512165, 134.64578 409.252305, 134.64578 409.252305, 124.01585 387.992445, 124.01585 387.992445, 134.64578 366.732585, 134.64578 366.732585, 124.01585 345.47272499999997, 124.01585 345.47272499999997, 134.64578 324.21286499999997, 134.64578 324.21286499999997, 124.01585 302.953005, 124.01585 302.953005, 134.64578 281.693145, 134.64578 281.693145, 124.01585 260.433285, 124.01585 260.433285, 134.64578 239.173425, 134.64578 239.173425, 124.01585 217.913565, 124.01585 217.913565, 134.64578 196.653705, 134.64578 196.653705, 124.01585 175.393845, 124.01585 175.393845, 134.64578 154.133985, 134.64578 154.133985, 124.01585 132.874125, 124.01585 132.874125, 134.64578 111.61426499999999, 134.64578 111.61426499999999, 124.01585 90.354405, 124.01585 90.354405, 134.64578 69.094545, 134.64578 69.094545, 124.01585 34.5472725, 124.01585 34.5472725, 134.64578 10.62993, 134.64578 10.62993, 106.2993 0, 106.2993 0, 77.95282 10.62993, 77.95282 10.62993, 56.69296 0, 56.69296 0, 28.34648 10.62993, 28.34648 "/> 
</g>
<!-- Top--> 
<g transform="translate(14516.111935459998, 14650.757715459999) " > 
<polygon style="stroke:#000000; fill:none; stroke-width:0.90000074" points="10.62993, 10.62993 34.5472725, 10.62993 34.5472725, 0 69.094545, 0 69.094545, 10.62993 90.354405, 10.62993 90.354405, 0 111.61426499999999, 0 111.61426499999999, 10.62993 132.874125, 10.62993 132.874125, 0 154.133985, 0 154.133985, 10.62993 175.393845, 10.62993 175.393845, 0 196.653705, 0 196.653705, 10.62993 217.913565, 10.62993 217.913565, 0 239.173425, 0 239.173425, 10.62993 260.433285, 10.62993 260.433285, 0 281.693145, 0 281.693145, 10.62993 302.953005, 10.62993 302.953005, 0 324.21286499999997, 0 324.21286499999997, 10.62993 345.47272499999997, 10.62993 345.47272499999997, 0 366.732585, 0 366.732585, 10.62993 387.992445, 10.62993 387.992445, 0 409.252305, 0 409.252305, 10.62993 430.512165, 10.62993 430.512165, 0 451.772025, 0 451.772025, 10.62993 473.031885, 10.62993 473.031885, 0 507.5791575, 0 507.5791575, 10.62993 531.4965000000001, 10.62993 531.4965000000001, 34.5472725 542.12643, 34.5472725 542.12643, 69.094545 531.4965000000001, 69.094545 531.4965000000001, 90.354405 542.12643, 90.354405 542.12643, 111.61426499999999 531.4965000000001, 111.61426499999999 531.4965000000001, 132.874125 542.12643, 132.874125 542.12643, 154.133985 531.4965000000001, 154.133985 531.4965000000001, 175.393845 542.12643, 175.393845 542.12643, 196.653705 531.4965000000001, 196.653705 531.4965000000001, 217.913565 542.12643, 217.913565 542.12643, 239.173425 531.4965000000001, 239.173425 531.4965000000001, 260.433285 542.12643, 260.433285 542.12643, 281.693145 531.4965000000001, 281.693145 531.4965000000001, 302.953005 542.12643, 302.953005 542.12643, 324.21286499999997 531.4965000000001, 324.21286499999997 531.4965000000001, 345.47272499999997 542.12643, 345.47272499999997 542.12643, 366.732585 531.4965000000001, 366.732585 531.4965000000001, 387.992445 542.12643, 387.992445 542.12643, 409.252305 531.4965000000001, 409.252305 531.4965000000001, 430.512165 542.12643, 430.512165 542.12643, 451.772025 531.4965000000001, 451.772025 531.4965000000001, 473.031885 542.12643, 473.031885 542.12643, 507.5791575 531.4965000000001, 507.5791575 531.4965000000001, 531.4965000000001 507.5791575, 531.4965000000001 507.5791575, 542.12643 473.031885, 542.12643 473.031885, 531.4965000000001 451.772025, 531.4965000000001 451.772025, 542.12643 430.512165, 542.12643 430.512165, 531.4965000000001 409.252305, 531.4965000000001 409.252305, 542.12643 387.992445, 542.12643 387.992445, 531.4965000000001 366.732585, 531.4965000000001 366.732585, 542.12643 345.47272499999997, 542.12643 345.47272499999997, 531.4965000000001 324.21286499999997, 531.4965000000001 324.21286499999997, 542.12643 302.953005, 542.12643 302.953005, 531.4965000000001 281.693145, 531.4965000000001 281.693145, 542.12643 260.433285, 542.12643 260.433285, 531.4965000000001 239.173425, 531.4965000000001 239.173425, 542.12643 217.913565, 542.12643 217.913565, 531.4965000000001 196.653705, 531.4965000000001 196.653705, 542.12643 175.393845, 542.12643 175.393845, 531.4965000000001 154.133985, 531.4965000000001 154.133985, 542.12643 132.874125, 542.12643 132.874125, 531.4965000000001 111.61426499999999, 531.4965000000001 111.61426499999999, 542.12643 90.354405, 542.12643 90.354405, 531.4965000000001 69.094545, 531.4965000000001 69.094545, 542.12643 34.5472725, 542.12643 34.5472725, 531.4965000000001 10.62993, 531.4965000000001 10.62993, 507.5791575 0, 507.5791575 0, 473.031885 10.62993, 473.031885 10.62993, 451.772025 0, 451.772025 0, 430.512165 10.62993, 430.512165 10.62993, 409.252305 0, 409.252305 0, 387.992445 10.62993, 387.992445 10.62993, 366.732585 0, 366.732585 0, 345.47272499999997 10.62993, 345.47272499999997 10.62993, 324.21286499999997 0, 324.21286499999997 0, 302.953005 10.62993, 302.953005 10.62993, 281.693145 0, 281.693145 0, 260.433285 10.62993, 260.433285 10.62993, 239.173425 0, 239.173425 0, 217.913565 10.62993, 217.913565 10.62993, 196.653705 0, 196.653705 0, 175.393845 10.62993, 175.393845 10.62993, 154.133985 0, 154.133985 0, 132.874125 10.62993, 132.874125 10.62993, 111.61426499999999 0, 111.61426499999999 0, 90.354405 10.62993, 90.354405 10.62993, 69.094545 0, 69.094545 0, 34.5472725 10.62993, 34.5472725 "/> 
</g>
<!-- Bottom--> 
<g transform="translate(15058.238365459998, 14650.757715459999) " > 
<polygon style="stroke:#000000; fill:none; stroke-width:0.90000074" points="10.62993, 10.62993 34.5472725, 10.62993 34.5472725, 0 69.094545, 0 69.094545, 10.62993 90.354405, 10.62993 90.354405, 0 111.61426499999999, 0 111.61426499999999, 10.62993 132.874125, 10.62993 132.874125, 0 154.133985, 0 154.133985, 10.62993 175.393845, 10.62993 175.393845, 0 196.653705, 0 196.653705, 10.62993 217.913565, 10.62993 217.913565, 0 239.173425, 0 239.173425, 10.62993 260.433285, 10.62993 260.433285, 0 281.693145, 0 281.693145, 10.62993 302.953005, 10.62993 302.953005, 0 324.21286499999997, 0 324.21286499999997, 10.62993 345.47272499999997, 10.62993 345.47272499999997, 0 366.732585, 0 366.732585, 10.62993 387.992445, 10.62993 387.992445, 0 409.252305, 0 409.252305, 10.62993 430.512165, 10.62993 430.512165, 0 451.772025, 0 451.772025, 10.62993 473.031885, 10.62993 473.031885, 0 507.5791575, 0 507.5791575, 10.62993 531.4965000000001, 10.62993 531.4965000000001, 34.5472725 542.12643, 34.5472725 542.12643, 69.094545 531.4965000000001, 69.094545 531.4965000000001, 90.354405 542.12643, 90.354405 542.12643, 111.61426499999999 531.4965000000001, 111.61426499999999 531.4965000000001, 132.874125 542.12643, 132.874125 542.12643, 154.133985 531.4965000000001, 154.133985 531.4965000000001, 175.393845 542.12643, 175.393845 542.12643, 196.653705 531.4965000000001, 196.653705 531.4965000000001, 217.913565 542.12643, 217.913565 542.12643, 239.173425 531.4965000000001, 239.173425 531.4965000000001, 260.433285 542.12643, 260.433285 542.12643, 281.693145 531.4965000000001, 281.693145 531.4965000000001, 302.953005 542.12643, 302.953005 542.12643, 324.21286499999997 531.4965000000001, 324.21286499999997 531.4965000000001, 345.47272499999997 542.12643, 345.47272499999997 542.12643, 366.732585 531.4965000000001, 366.732585 531.4965000000001, 387.992445 542.12643, 387.992445 542.12643, 409.252305 531.4965000000001, 409.252305 531.4965000000001, 430.512165 542.12643, 430.512165 542.12643, 451.772025 531.4965000000001, 451.772025 531.4965000000001, 473.031885 542.12643, 473.031885 542.12643, 507.5791575 531.4965000000001, 507.5791575 531.4965000000001, 531.4965000000001 507.5791575, 531.4965000000001 507.5791575, 542.12643 473.031885, 542.12643 473.031885, 531.4965000000001 451.772025, 531.4965000000001 451.772025, 542.12643 430.512165, 542.12643 430.512165, 531.4965000000001 409.252305, 531.4965000000001 409.252305, 542.12643 387.992445, 542.12643 387.992445, 531.4965000000001 366.732585, 531.4965000000001 366.732585, 542.12643 345.47272499999997, 542.12643 345.47272499999997, 531.4965000000001 324.21286499999997, 531.4965000000001 324.21286499999997, 542.12643 302.953005, 542.12643 302.953005, 531.4965000000001 281.693145, 531.4965000000001 281.693145, 542.12643 260.433285, 542.12643 260.433285, 531.4965000000001 239.173425, 531.4965000000001 239.173425, 542.12643 217.913565, 542.12643 217.913565, 531.4965000000001 196.653705, 531.4965000000001 196.653705, 542.12643 175.393845, 542.12643 175.393845, 531.4965000000001 154.133985, 531.4965000000001 154.133985, 542.12643 132.874125, 542.12643 132.874125, 531.4965000000001 111.61426499999999, 531.4965000000001 111.61426499999999, 542.12643 90.354405, 542.12643 90.354405, 531.4965000000001 69.094545, 531.4965000000001 69.094545, 542.12643 34.5472725, 542.12643 34.5472725, 531.4965000000001 10.62993, 531.4965000000001 10.62993, 507.5791575 0, 507.5791575 0, 473.031885 10.62993, 473.031885 10.62993, 451.772025 0, 451.772025 0, 430.512165 10.62993, 430.512165 10.62993, 409.252305 0, 409.252305 0, 387.992445 10.62993, 387.992445 10.62993, 366.732585 0, 366.732585 0, 345.47272499999997 10.62993, 345.47272499999997 10.62993, 324.21286499999997 0, 324.21286499999997 0, 302.953005 10.62993, 302.953005 10.62993, 281.693145 0, 281.693145 0, 260.433285 10.62993, 260.433285 10.62993, 239.173425 0, 239.173425 0, 217.913565 10.62993, 217.913565 10.62993, 196.653705 0, 196.653705 0, 175.393845 10.62993, 175.393845 10.62993, 154.133985 0, 154.133985 0, 132.874125 10.62993, 132.874125 10.62993, 111.61426499999999 0, 111.61426499999999 0, 90.354405 10.62993, 90.354405 10.62993, 69.094545 0, 69.094545 0, 34.5472725 10.62993, 34.5472725 "/> 
 <circle cx="411.37120438" cy="130.75522562" r="7.08662" style="stroke:#000000;stroke-width:0.90000074;fill:none" /> 
 <circle cx="130.75522562" cy="411.37120438" r="7.08662" style="stroke:#000000;stroke-width:0.90000074;fill:none" /> 
 <circle cx="130.75522562" cy="130.75522562" r="7.08662" style="stroke:#000000;stroke-width:0.90000074;fill:none" /> 
 <circle cx="411.37120438" cy="411.37120438" r="7.08662" style="stroke:#000000;stroke-width:0.90000074;fill:none" /> 
</g></svg>